<svg id="Layer_1" xmlns="http://www.w3.org/2000/svg" viewBox="0 0 100 100"><style>.st0{font-family:&apos;CenturyGothic-Bold&apos;;} .st1{font-size:18px;} .st2{fill:#010101;}</style><text transform="matrix(1.1974 0 0 1 28.883 17.334)"><tspan x="0" y="0" class="st0 st1">Not </tspan><tspan x="-24.1" y="21.6" class="st0 st1">Available</tspan></text><path class="st2" d="M50 93.8c-13.4 0-24.3-10.9-24.3-24.3S36.6 45.3 50 45.3s24.3 10.9 24.3 24.3S63.4 93.8 50 93.8zm0-47c-12.6 0-22.8 10.2-22.8 22.8S37.4 92.4 50 92.4s22.8-10.2 22.8-22.8S62.6 46.8 50 46.8z"/><circle class="st2" cx="42.9" cy="62.9" r="3.1"/><circle class="st2" cx="57.8" cy="62.9" r="3.1"/><path class="st2" d="M40.9 80.5c-.1 0-.3 0-.4-.1-.3-.2-.5-.7-.2-1C42.4 76 46 74 50 74c3.9 0 7.5 2 9.7 5.3.2.3.1.8-.2 1-.3.2-.8.1-1-.2-1.8-2.9-5-4.6-8.4-4.6-3.5 0-6.7 1.8-8.5 4.7-.2.2-.4.3-.7.3z"/></svg>