<?xml version="1.0" encoding="utf-8"?>
<!-- Generator: Adobe Illustrator 22.0.0, SVG Export Plug-In . SVG Version: 6.00 Build 0)  -->
<svg version="1.1" id="Layer_1" xmlns="http://www.w3.org/2000/svg" xmlns:xlink="http://www.w3.org/1999/xlink" x="0px" y="0px"
	 viewBox="0 0 100 100" style="enable-background:new 0 0 100 100;" xml:space="preserve">
<style type="text/css">
	.st0{font-family:'CenturyGothic-Bold';}
	.st1{font-size:18px;}
	.st2{fill:#010101;}
</style>
<text transform="matrix(1.1974 0 0 1 28.8833 17.3335)"><tspan x="0" y="0" class="st0 st1">Not </tspan><tspan x="-24.1" y="21.6" class="st0 st1">Available</tspan></text>
<g>
	<path class="st2" d="M50,93.8c-13.4,0-24.3-10.9-24.3-24.3S36.6,45.3,50,45.3s24.3,10.9,24.3,24.3S63.4,93.8,50,93.8z M50,46.8
		c-12.6,0-22.8,10.2-22.8,22.8S37.4,92.4,50,92.4s22.8-10.2,22.8-22.8S62.6,46.8,50,46.8z"/>
	<circle class="st2" cx="42.9" cy="62.9" r="3.1"/>
	<circle class="st2" cx="57.8" cy="62.9" r="3.1"/>
	<path class="st2" d="M40.9,80.5c-0.1,0-0.3,0-0.4-0.1c-0.3-0.2-0.5-0.7-0.2-1c2.1-3.4,5.7-5.4,9.7-5.4c3.9,0,7.5,2,9.7,5.3
		c0.2,0.3,0.1,0.8-0.2,1c-0.3,0.2-0.8,0.1-1-0.2c-1.8-2.9-5-4.6-8.4-4.6c-3.5,0-6.7,1.8-8.5,4.7C41.4,80.4,41.2,80.5,40.9,80.5z"/>
</g>
</svg>
